<svg width="12" height="16" viewBox="0 0 12 16" fill="none" xmlns="http://www.w3.org/2000/svg">
<path d="M6 0.5C3.0975 0.5 0.749999 2.8475 0.749999 5.75C0.749999 9.6875 6 15.5 6 15.5C6 15.5 11.25 9.6875 11.25 5.75C11.25 2.8475 8.9025 0.5 6 0.5ZM2.25 5.75C2.25 3.68 3.93 2 6 2C8.07 2 9.75 3.68 9.75 5.75C9.75 7.91 7.59 11.1425 6 13.16C4.44 11.1575 2.25 7.8875 2.25 5.75Z" fill="black"/>
<path d="M6 7.625C7.03553 7.625 7.875 6.78553 7.875 5.75C7.875 4.71447 7.03553 3.875 6 3.875C4.96447 3.875 4.125 4.71447 4.125 5.75C4.125 6.78553 4.96447 7.625 6 7.625Z" fill="black"/>
</svg>
