<svg width="164" height="25" viewBox="0 0 164 25" fill="none" xmlns="http://www.w3.org/2000/svg">
<path d="M97.795 16.498C99.7163 16.498 101.274 14.9393 101.274 13.0165C101.274 11.0937 99.7163 9.53501 97.795 9.53501C95.8738 9.53501 94.3163 11.0937 94.3163 13.0165C94.3163 14.9393 95.8738 16.498 97.795 16.498Z" fill="url(#paint0_linear_14701_2)"/>
<path d="M85.788 12.1465L91.2737 6.65651H87.5611C86.5411 8.3188 85.9331 10.2012 85.788 12.1465Z" fill="url(#paint1_linear_14701_2)"/>
<path d="M96.9587 1.00002C94.9448 1.12734 92.9978 1.77321 91.3067 2.87502V6.65803L96.9587 1.00002Z" fill="url(#paint2_linear_14701_2)"/>
<path d="M109.769 12.1465L104.283 6.65651H107.996C109.03 8.3121 109.64 10.1981 109.769 12.1465Z" fill="url(#paint3_linear_14701_2)"/>
<path d="M98.6314 1.00002C100.645 1.1274 102.592 1.77327 104.283 2.87502V6.65803L98.6314 1.00002Z" fill="url(#paint4_linear_14701_2)"/>
<path d="M91.3067 13.786H85.821C85.9503 15.7344 86.5594 17.6205 87.5941 19.276H91.3067V13.786Z" fill="url(#paint5_linear_14701_2)"/>
<path d="M104.318 13.786H109.804C109.674 15.7344 109.065 17.6205 108.031 19.276H104.318V13.786Z" fill="url(#paint6_linear_14701_2)"/>
<path d="M96.9588 6.59052L91.4132 12.1405H85.7881L96.9588 0.994019V6.59052Z" fill="url(#paint7_linear_14701_2)"/>
<path d="M98.6314 24.9655C100.656 24.8934 102.623 24.2683 104.318 23.158L104.318 13.786L98.6314 19.477V24.9655Z" fill="url(#paint8_linear_14701_2)"/>
<path d="M96.9257 19.444L91.3067 13.8205V23.1925C93.0031 24.2734 94.9503 24.8961 96.9587 25V19.45L96.9257 19.444Z" fill="url(#paint9_linear_14701_2)"/>
<path d="M98.6314 6.59053L104.177 12.1405H109.796L98.6314 1.00002L98.6314 6.59053Z" fill="url(#paint10_linear_14701_2)"/>
<path d="M18.6891 23.6215C18.5055 23.6381 18.3218 23.5906 18.1694 23.4869C18.0169 23.3833 17.905 23.2299 17.8527 23.053L15.3047 16.1245H5.18174L2.70719 23.053C2.6472 23.2251 2.5335 23.3732 2.38289 23.4756C2.23228 23.578 2.05276 23.6291 1.87086 23.6215C1.72463 23.6204 1.58097 23.5829 1.45275 23.5125C1.32453 23.4422 1.21575 23.3411 1.13615 23.2183C1.05655 23.0956 1.00861 22.9549 0.996626 22.8091C0.984644 22.6632 1.00899 22.5167 1.06749 22.3825L7.62331 4.27304C7.75931 3.67424 8.09522 3.13973 8.5756 2.75769C9.05598 2.37564 9.65213 2.16889 10.2657 2.17154C10.8783 2.1728 11.4731 2.37725 11.9572 2.75288C12.4413 3.12851 12.7873 3.65415 12.9411 4.24755L19.5359 22.39C19.5707 22.4869 19.5934 22.5876 19.6033 22.69C19.5982 22.9326 19.5007 23.1641 19.3308 23.3372C19.1609 23.5104 18.9313 23.612 18.6891 23.6215ZM5.84571 14.35H14.6423L11.1635 4.60904C11.1236 4.39743 11.0128 4.2058 10.8492 4.06586C10.6857 3.92592 10.4793 3.84607 10.2642 3.83954C9.86454 3.83954 9.56477 4.10756 9.36493 4.64356L5.84571 14.35Z" fill="url(#paint11_linear_14701_2)"/>
<path d="M25.5162 4.21304H18.9573C18.8389 4.22001 18.7203 4.20269 18.6088 4.16212C18.4972 4.12154 18.3952 4.05858 18.3089 3.97711C18.2225 3.89564 18.1537 3.79736 18.1067 3.68833C18.0597 3.5793 18.0355 3.46179 18.0355 3.34304C18.0355 3.22429 18.0597 3.1068 18.1067 2.99777C18.1537 2.88874 18.2225 2.79046 18.3089 2.70899C18.3952 2.62752 18.4972 2.56456 18.6088 2.52398C18.7203 2.48341 18.8389 2.46609 18.9573 2.47306H33.7072C33.9378 2.47306 34.1589 2.56472 34.3219 2.72787C34.4849 2.89103 34.5765 3.1123 34.5765 3.34304C34.5765 3.57378 34.4849 3.79507 34.3219 3.95823C34.1589 4.12138 33.9378 4.21304 33.7072 4.21304H27.2563V22.8236C27.2563 22.9378 27.2338 23.0509 27.1901 23.1565C27.1464 23.2621 27.0824 23.3579 27.0017 23.4387C26.921 23.5195 26.8251 23.5836 26.7197 23.6273C26.6142 23.6711 26.5011 23.6935 26.387 23.6935C26.2728 23.6935 26.1598 23.6711 26.0543 23.6273C25.9488 23.5836 25.853 23.5195 25.7723 23.4387C25.6916 23.3579 25.6275 23.2621 25.5838 23.1565C25.5402 23.0509 25.5177 22.9378 25.5177 22.8236L25.5162 4.21304Z" fill="url(#paint12_linear_14701_2)"/>
<path d="M52.6058 16.4981C52.61 17.4726 52.4165 18.4379 52.0371 19.3355C51.6576 20.233 51.1 21.0441 50.398 21.7196C49.6442 22.4663 48.7437 23.0483 47.7535 23.4286C46.7633 23.809 45.705 23.9794 44.6455 23.9291C43.5347 23.9521 42.4304 23.7539 41.3968 23.346C40.3632 22.9381 39.421 22.3287 38.6248 21.5531C36.9975 19.9564 36.0301 17.8054 35.9149 15.5276C35.7812 13.8903 35.7812 12.2448 35.9149 10.6076C36.0309 8.34957 36.9995 6.21994 38.6248 4.64956C39.4164 3.86535 40.3571 3.24797 41.3912 2.83393C42.4253 2.4199 43.5319 2.21761 44.6455 2.23904C46.2511 2.19504 47.8323 2.6383 49.1814 3.51055C50.5304 4.3828 51.5842 5.64322 52.2041 7.12606C52.2556 7.2631 52.2736 7.41049 52.2565 7.5559C52.2394 7.70132 52.1877 7.8405 52.1058 7.96183C52.0239 8.08315 51.9142 8.18308 51.7857 8.25324C51.6573 8.32339 51.514 8.36173 51.3677 8.36505C51.1849 8.3772 51.0034 8.32787 50.8518 8.22486C50.7003 8.12185 50.5875 7.97108 50.5314 7.79655C50.0303 6.65663 49.2046 5.68983 48.1575 5.01698C47.1103 4.34414 45.8883 3.9951 44.644 4.01354C43.7784 4.0005 42.9189 4.15952 42.1151 4.48138C41.3114 4.80323 40.5794 5.28152 39.9617 5.88854C38.6582 7.11351 37.869 8.78875 37.754 10.5746C37.5868 12.2439 37.5868 13.9257 37.754 15.5951C37.8712 17.3827 38.6453 19.0637 39.9273 20.3141C40.5515 20.9215 41.2892 21.3997 42.0984 21.7215C42.9075 22.0432 43.772 22.2021 44.6425 22.1891C46.2601 22.2597 47.846 21.725 49.091 20.6891C49.659 20.204 50.1102 19.5969 50.4113 18.9131C50.7123 18.2293 50.8553 17.4864 50.8297 16.7396V14.3891H45.8131C45.5826 14.3891 45.3615 14.2974 45.1984 14.1342C45.0354 13.9711 44.9438 13.7498 44.9438 13.5191C44.9438 13.2883 45.0354 13.067 45.1984 12.9039C45.3615 12.7407 45.5826 12.6491 45.8131 12.6491H50.9301C51.1492 12.628 51.3703 12.6545 51.5782 12.7269C51.7861 12.7992 51.976 12.9156 52.1348 13.0682C52.2936 13.2207 52.4177 13.4057 52.4984 13.6107C52.5792 13.8156 52.6148 14.0356 52.6028 14.2556L52.6058 16.4981Z" fill="url(#paint13_linear_14701_2)"/>
<path d="M58.1603 22.8911C58.1692 23.0268 58.1496 23.1628 58.1028 23.2904C58.056 23.418 57.983 23.5345 57.8886 23.6322C57.7942 23.73 57.6804 23.8069 57.5545 23.858C57.4286 23.9091 57.2934 23.9333 57.1576 23.9291C57.0234 23.9277 56.8908 23.8997 56.7675 23.8466C56.6442 23.7936 56.5327 23.7165 56.4394 23.6199C56.3461 23.5233 56.2729 23.4092 56.2241 23.2841C56.1753 23.159 56.1518 23.0254 56.1549 22.8911V21.2516C56.0545 19.9121 58.2293 19.9121 58.1618 21.2516L58.1603 22.8911Z" fill="url(#paint14_linear_14701_2)"/>
<path d="M59.0641 3.44356C59.0205 3.30952 59.0101 3.16689 59.0337 3.02791C59.0574 2.88894 59.1144 2.75779 59.2 2.64577C59.2855 2.53376 59.3969 2.44422 59.5247 2.38487C59.6525 2.32552 59.7928 2.29814 59.9335 2.30508C60.0348 2.29457 60.1373 2.30458 60.2348 2.33452C60.3322 2.36446 60.4226 2.41371 60.5007 2.47935C60.5787 2.54499 60.6428 2.62567 60.689 2.71659C60.7352 2.80751 60.7627 2.90681 60.7698 3.00857L65.0174 22.0886C65.0174 22.3226 65.2513 22.2566 65.3172 22.0886L70.1329 3.88006C70.1995 3.44655 70.4244 3.05319 70.7642 2.7761C71.1039 2.49901 71.5342 2.35788 71.9719 2.38006C72.4082 2.36417 72.8353 2.5076 73.1736 2.78358C73.512 3.05957 73.7385 3.44927 73.811 3.88006L78.5263 22.1231C78.5937 22.2911 78.826 22.3571 78.826 22.1231L83.1411 3.07307C83.1595 2.85759 83.26 2.65745 83.4219 2.51417C83.5837 2.37089 83.7945 2.29547 84.0104 2.30357C84.1524 2.28879 84.2957 2.31142 84.4263 2.36921C84.5568 2.42701 84.6699 2.51796 84.7545 2.63305C84.839 2.74813 84.892 2.88336 84.9082 3.02528C84.9244 3.1672 84.9032 3.31088 84.8468 3.44208L80.5002 22.4546C80.4068 22.864 80.1772 23.2296 79.8491 23.4915C79.521 23.7533 79.1138 23.8959 78.6941 23.8959C78.2745 23.8959 77.8672 23.7533 77.5391 23.4915C77.211 23.2296 76.9815 22.864 76.8881 22.4546L72.0724 4.21158C72.0724 4.17179 72.0566 4.13364 72.0285 4.10551C72.0004 4.07738 71.9622 4.06157 71.9225 4.06157C71.8827 4.06157 71.8446 4.07738 71.8165 4.10551C71.7884 4.13364 71.7726 4.17179 71.7726 4.21158L66.8895 22.4546C66.7961 22.864 66.5665 23.2296 66.2384 23.4915C65.9103 23.7533 65.5031 23.8959 65.0834 23.8959C64.6637 23.8959 64.2565 23.7533 63.9284 23.4915C63.6003 23.2296 63.3707 22.864 63.2773 22.4546L59.0641 3.44356Z" fill="url(#paint15_linear_14701_2)"/>
<path d="M126.893 23.761C126.759 23.7553 126.628 23.7227 126.508 23.6652C126.387 23.6077 126.279 23.5266 126.19 23.4265L120.237 15.9625C120.065 15.6633 119.816 15.4155 119.516 15.2449C119.216 15.0742 118.876 14.9869 118.531 14.992H114.316V22.858C114.307 23.0887 114.213 23.3078 114.053 23.4738C113.893 23.6398 113.677 23.7409 113.447 23.758C113.215 23.7463 112.996 23.6468 112.835 23.4797C112.674 23.3126 112.582 23.0904 112.578 22.858V4.21303C112.568 3.98173 112.606 3.7509 112.69 3.53517C112.774 3.31944 112.902 3.12353 113.065 2.9599C113.229 2.79627 113.425 2.66848 113.641 2.58467C113.856 2.50086 114.087 2.46284 114.318 2.47304H120.439C122.19 2.38665 123.906 2.98721 125.222 4.14704C125.846 4.7433 126.333 5.46766 126.65 6.27035C126.968 7.07305 127.108 7.93503 127.061 8.79703C127.061 12.3115 124.987 14.287 121.515 14.755L127.602 22.3195C127.722 22.4837 127.782 22.6848 127.77 22.888C127.774 23.0042 127.754 23.1198 127.711 23.2279C127.669 23.3359 127.604 23.434 127.522 23.5159C127.439 23.5978 127.341 23.6619 127.233 23.7041C127.125 23.7463 127.009 23.7657 126.893 23.761ZM114.351 13.2175H119.97C123.549 13.2175 125.321 11.7445 125.321 8.73253C125.321 5.95453 123.615 4.21303 120.405 4.21303H114.351V13.2175Z" fill="url(#paint16_linear_14701_2)"/>
<path d="M130.673 3.24252C130.673 3.01178 130.765 2.79051 130.928 2.62735C131.091 2.4642 131.312 2.37254 131.542 2.37254C131.773 2.37254 131.994 2.4642 132.157 2.62735C132.32 2.79051 132.412 3.01178 132.412 3.24252V21.82H142.981C143.216 21.8313 143.438 21.9298 143.605 22.0962C143.771 22.2626 143.869 22.485 143.881 22.72C143.869 22.9521 143.769 23.1711 143.602 23.3326C143.436 23.4941 143.213 23.5861 142.981 23.59H132.446C132.211 23.6 131.976 23.5609 131.756 23.4753C131.536 23.3896 131.337 23.2593 131.17 23.0925C131.004 22.9256 130.873 22.726 130.788 22.5062C130.702 22.2864 130.663 22.0512 130.673 21.8155V3.24252Z" fill="url(#paint17_linear_14701_2)"/>
<path d="M149.035 23.626C148.809 23.6386 148.583 23.6028 148.373 23.521C148.162 23.4392 147.971 23.3133 147.812 23.1517C147.654 22.9901 147.532 22.7966 147.454 22.584C147.377 22.3714 147.345 22.1447 147.362 21.919V4.14551C147.345 3.91982 147.377 3.6931 147.454 3.48051C147.532 3.26792 147.654 3.07436 147.812 2.91277C147.971 2.75118 148.162 2.62528 148.373 2.54349C148.583 2.46171 148.809 2.42591 149.035 2.43851H154.257C155.483 2.35702 156.713 2.53548 157.866 2.96223C159.018 3.38898 160.068 4.05441 160.946 4.91501C162.595 6.67548 163.515 8.99591 163.521 11.4085C163.588 12.512 163.588 13.6185 163.521 14.722C163.484 17.1277 162.553 19.4333 160.909 21.1885C160.027 22.0323 158.981 22.6848 157.835 23.1053C156.69 23.5257 155.47 23.7051 154.253 23.632H149.035V23.626ZM161.775 11.341C161.508 6.856 159.065 4.21152 154.217 4.21152H149.133V21.8185H154.217C159.067 21.8185 161.541 19.141 161.775 14.689C161.843 13.5746 161.844 12.4571 161.778 11.3425L161.775 11.341Z" fill="url(#paint18_linear_14701_2)"/>
<path d="M91.3007 23.2V13.8205L96.9123 19.45H96.9453V25C94.9399 24.8981 92.9952 24.278 91.3007 23.2ZM98.6149 19.4845L104.292 13.7935V23.1655C102.6 24.2755 100.637 24.9006 98.6149 24.973V19.4845ZM104.292 19.2835V13.786H109.771C109.641 15.734 109.033 17.6199 108.001 19.276L104.292 19.2835ZM87.5926 19.2835C86.5586 17.6252 85.9505 15.7366 85.8225 13.786H91.3007V19.276L87.5926 19.2835ZM94.3073 13.0165C94.3085 12.3294 94.5132 11.658 94.8955 11.0873C95.2778 10.5165 95.8206 10.072 96.4553 9.80986C97.0899 9.54773 97.788 9.47976 98.4613 9.61454C99.1345 9.74932 99.7527 10.0808 100.238 10.5671C100.723 11.0534 101.053 11.6727 101.187 12.3467C101.32 13.0207 101.251 13.7192 100.988 14.3539C100.725 14.9886 100.28 15.5311 99.7088 15.9127C99.1379 16.2943 98.4667 16.498 97.7801 16.498C97.3236 16.4976 96.8718 16.4073 96.4502 16.2321C96.0287 16.0569 95.6457 15.8004 95.3232 15.4771C95.0008 15.1538 94.7451 14.7701 94.5708 14.3479C94.3965 13.9257 94.3069 13.4733 94.3073 13.0165ZM104.161 12.1465L98.6149 6.59652V1.00002C100.627 1.1272 102.571 1.77313 104.259 2.87502V6.64002L104.276 6.65652H107.972C108.998 8.30235 109.605 10.1752 109.739 12.1105L109.771 12.1465H104.161ZM85.7896 12.1465L85.83 12.1C85.9808 10.1712 86.5864 8.30568 87.5971 6.65652H91.2842L91.3007 6.64002V2.87502C92.9891 1.77313 94.9336 1.1272 96.9453 1.00002V6.59052L91.3996 12.1405L85.7896 12.1465Z" fill="url(#paint19_linear_14701_2)"/>
<defs>
<linearGradient id="paint0_linear_14701_2" x1="85.7895" y1="11.464" x2="97.7907" y2="24.9906" gradientUnits="userSpaceOnUse">
<stop stop-color="#00A854"/>
<stop offset="1" stop-color="#004D25"/>
</linearGradient>
<linearGradient id="paint1_linear_14701_2" x1="85.7895" y1="11.464" x2="97.7907" y2="24.9906" gradientUnits="userSpaceOnUse">
<stop stop-color="#00A854"/>
<stop offset="1" stop-color="#004D25"/>
</linearGradient>
<linearGradient id="paint2_linear_14701_2" x1="85.7895" y1="11.464" x2="97.7907" y2="24.9906" gradientUnits="userSpaceOnUse">
<stop stop-color="#00A854"/>
<stop offset="1" stop-color="#004D25"/>
</linearGradient>
<linearGradient id="paint3_linear_14701_2" x1="85.7895" y1="11.464" x2="97.7907" y2="24.9906" gradientUnits="userSpaceOnUse">
<stop stop-color="#00A854"/>
<stop offset="1" stop-color="#004D25"/>
</linearGradient>
<linearGradient id="paint4_linear_14701_2" x1="85.7895" y1="11.464" x2="97.7907" y2="24.9906" gradientUnits="userSpaceOnUse">
<stop stop-color="#00A854"/>
<stop offset="1" stop-color="#004D25"/>
</linearGradient>
<linearGradient id="paint5_linear_14701_2" x1="85.7895" y1="11.464" x2="97.7907" y2="24.9906" gradientUnits="userSpaceOnUse">
<stop stop-color="#00A854"/>
<stop offset="1" stop-color="#004D25"/>
</linearGradient>
<linearGradient id="paint6_linear_14701_2" x1="85.7895" y1="11.464" x2="97.7907" y2="24.9906" gradientUnits="userSpaceOnUse">
<stop stop-color="#00A854"/>
<stop offset="1" stop-color="#004D25"/>
</linearGradient>
<linearGradient id="paint7_linear_14701_2" x1="85.7895" y1="11.464" x2="97.7907" y2="24.9906" gradientUnits="userSpaceOnUse">
<stop stop-color="#00A854"/>
<stop offset="1" stop-color="#004D25"/>
</linearGradient>
<linearGradient id="paint8_linear_14701_2" x1="85.7895" y1="11.464" x2="97.7907" y2="24.9906" gradientUnits="userSpaceOnUse">
<stop stop-color="#00A854"/>
<stop offset="1" stop-color="#004D25"/>
</linearGradient>
<linearGradient id="paint9_linear_14701_2" x1="85.7895" y1="11.464" x2="97.7907" y2="24.9906" gradientUnits="userSpaceOnUse">
<stop stop-color="#00A854"/>
<stop offset="1" stop-color="#004D25"/>
</linearGradient>
<linearGradient id="paint10_linear_14701_2" x1="85.7895" y1="11.464" x2="97.7907" y2="24.9906" gradientUnits="userSpaceOnUse">
<stop stop-color="#00A854"/>
<stop offset="1" stop-color="#004D25"/>
</linearGradient>
<linearGradient id="paint11_linear_14701_2" x1="85.7895" y1="11.464" x2="97.7907" y2="24.9906" gradientUnits="userSpaceOnUse">
<stop stop-color="#00A854"/>
<stop offset="1" stop-color="#004D25"/>
</linearGradient>
<linearGradient id="paint12_linear_14701_2" x1="85.7895" y1="11.464" x2="97.7907" y2="24.9906" gradientUnits="userSpaceOnUse">
<stop stop-color="#00A854"/>
<stop offset="1" stop-color="#004D25"/>
</linearGradient>
<linearGradient id="paint13_linear_14701_2" x1="85.7895" y1="11.464" x2="97.7907" y2="24.9906" gradientUnits="userSpaceOnUse">
<stop stop-color="#00A854"/>
<stop offset="1" stop-color="#004D25"/>
</linearGradient>
<linearGradient id="paint14_linear_14701_2" x1="85.7895" y1="11.464" x2="97.7907" y2="24.9906" gradientUnits="userSpaceOnUse">
<stop stop-color="#00A854"/>
<stop offset="1" stop-color="#004D25"/>
</linearGradient>
<linearGradient id="paint15_linear_14701_2" x1="85.7895" y1="11.464" x2="97.7907" y2="24.9906" gradientUnits="userSpaceOnUse">
<stop stop-color="#00A854"/>
<stop offset="1" stop-color="#004D25"/>
</linearGradient>
<linearGradient id="paint16_linear_14701_2" x1="85.7895" y1="11.464" x2="97.7907" y2="24.9906" gradientUnits="userSpaceOnUse">
<stop stop-color="#00A854"/>
<stop offset="1" stop-color="#004D25"/>
</linearGradient>
<linearGradient id="paint17_linear_14701_2" x1="85.7895" y1="11.464" x2="97.7907" y2="24.9906" gradientUnits="userSpaceOnUse">
<stop stop-color="#00A854"/>
<stop offset="1" stop-color="#004D25"/>
</linearGradient>
<linearGradient id="paint18_linear_14701_2" x1="85.7895" y1="11.464" x2="97.7907" y2="24.9906" gradientUnits="userSpaceOnUse">
<stop stop-color="#00A854"/>
<stop offset="1" stop-color="#004D25"/>
</linearGradient>
<linearGradient id="paint19_linear_14701_2" x1="85.7895" y1="11.464" x2="97.7907" y2="24.9906" gradientUnits="userSpaceOnUse">
<stop stop-color="#00A854"/>
<stop offset="1" stop-color="#004D25"/>
</linearGradient>
</defs>
</svg>
